<svg version="1.0" xmlns="http://www.w3.org/2000/svg" width="1706.667" height="1706.667" viewBox="0 0 1280 1280"><path d="M615.6 240.6l-193.9 1.2-14.4 14.4c-22.4 22.2-81.6 82.9-115.4 118.3-67.9 71.1-147.6 157.6-149.2 161.6-.6 1.9 2.9 5.8 27.5 29.7 35.2 34.2 55.6 54.7 189.6 190.7 171.6 174.1 281 282.5 285.1 282.5 1.2 0 8-6.5 18.2-17.3C712.4 969.7 779 900.4 885 791c172.3-177.7 251-260.9 251-265.2 0-1.5-24.7-26.9-80.2-82.7-44.2-44.3-92.7-93.7-107.8-109.6-58-61.2-83.9-86.2-95.4-92-4.8-2.4-5.6-2.5-24-2.3-10.5 0-106.4.7-213 1.4zm233 66.2c43.5 40.9 189.7 193.5 187.3 195.6-.2.2-52.4.7-115.9 1l-115.5.7-7.4-17.8c-25.2-60.7-57.8-135.6-75.6-173.6-4.8-10.3-8.6-18.9-8.4-19.2.2-.2 20-.8 43.9-1.5 23.9-.6 44.4-1.2 45.5-1.4 1.1-.2 7.9-.4 15.1-.5l13.1-.1 17.9 16.8zm-197-14.2l5.1.6 3.8 9.2c2.1 5 16.4 37.4 31.8 72.1 26.2 59.2 45.7 104.3 52.5 121.5l3 7.5-3.2.7c-1.7.4-48.8.8-104.6.9-55.8.1-103.3.2-105.5.3-2.2 0-3.9-.4-3.8-.9.5-3 72.6-173.7 84.8-200.9l5.9-12.9 12.5.7c6.9.3 14.9.9 17.7 1.2zm-90.5 3.6c-4.7 12-86.5 208.5-87 209.1-.8.8-233 2.7-234.1 1.9-1.3-.9 3.3-6.2 10-11.3 9.7-7.5 21.1-19.6 123.4-130.4 12.7-13.8 33.4-35.5 46-48.3l22.9-23.2H562l-.9 2.2zM1040 555.8c0 1-5.1 5.7-10.8 10.1-6 4.6-81.7 83.1-162.6 168.6-52.7 55.7-121.7 126.4-152.3 156.2-14.5 14-26.3 25.3-26.3 25 0-.8 85.5-254.4 95.3-282.7 11.2-32.4 26.5-75.1 27.1-75.8.3-.2 48.4-.8 106.8-1.2 58.5-.3 110-.7 114.6-.8 4.5-.1 8.2.2 8.2.6zm-289.6 5.9c-6.7 22.4-18.7 59.2-33.7 103.8-28.2 83.3-62.2 185.4-68 203.9l-5.3 17-2.8-7.5c-21.3-56.7-111.4-311.6-112.9-319.3-.1-.8 21.9-1.2 85.3-1.6 47-.3 97.5-.6 112.2-.8l26.6-.2-1.4 4.7zm-274 11C513.3 678 594.7 908.1 597.9 916.4l1.1 2.8-3.2-2.7C574.8 899 483.3 808.2 396.9 719c-31.7-32.7-79.7-81.4-106.8-108.2L241 562.1l5.2-.6c13.1-1.5 50.9-2.2 134.8-2.3l90.5-.2 4.9 13.7z"/></svg>